Coordinates
version=1
nRows=16
nColumns=22
inDegrees=yes

Units are S.I. units (second, meters, Newtons, ...)
If the header above contains a line with 'inDegrees', this indicates whether rotational values are in degrees (yes) or radians (no).

endheader
time	pelvis_tilt	pelvis_list	pelvis_rotation	pelvis_tx	pelvis_ty	pelvis_tz	hip_flexion_r	hip_adduction_r	hip_rotation_r	knee_angle_r	ankle_angle_r	subtalar_angle_r	hip_flexion_l	hip_adduction_l	hip_rotation_l	knee_angle_l	ankle_angle_l	subtalar_angle_l	lumbar_extension	lumbar_bending	lumbar_rotation
      5.29000000	     -2.94671158	      1.48707581	   -117.81882455	      0.71435909	      0.93810251	      0.59940048	      9.90692451	     15.34588607	      0.00484722	    -18.58265837	      9.09711153	     -8.00781619	     23.08178040	    -11.42912819	     -3.11754274	    -67.54698772	      6.79618079	      5.00508809	     -7.41568197	      3.12484559	      2.50652764
      5.30000000	     -2.94920975	      1.54035044	   -118.84117324	      0.71093145	      0.93854918	      0.60512394	      9.11723220	     15.46128720	      1.01351483	    -18.22330442	      9.25893585	     -8.00342719	     23.99713871	    -11.37837316	     -2.40627338	    -66.70637510	      7.36585773	      4.67889968	     -7.42017075	      3.13526695	      2.87684518
      5.31000000	     -2.92931481	      1.56154092	   -119.86934399	      0.70753816	      0.93896410	      0.61079660	      8.32660374	     15.52252122	      2.05110443	    -17.89483094	      9.42050773	     -8.03689776	     24.83107700	    -11.25665609	     -1.70129080	    -65.70495370	      7.85585788	      4.40140835	     -7.45062267	      3.10810233	      3.24898807
      5.32000000	     -2.89999661	      1.57307703	   -120.88618562	      0.70420873	      0.93930442	      0.61642045	      7.56622609	     15.55116674	      3.09334868	    -17.61695582	      9.60265149	     -8.11315790	     25.61430991	    -11.08204834	     -0.97757822	    -64.56677849	      8.30499639	      4.22436272	     -7.49258206	      3.07006205	      3.61058233
      5.33000000	     -2.86307519	      1.58015598	   -121.89300986	      0.70092988	      0.93956807	      0.62199425	      6.84458326	     15.55371099	      4.13761673	    -17.39646141	      9.80672800	     -8.22112095	     26.35160000	    -10.86438190	     -0.23803903	    -63.30196474	      8.70607105	      4.16579242	     -7.53978335	      3.02313767	      3.96445230
      5.34000000	     -2.81814193	      1.57785678	   -122.88831252	      0.69769649	      0.93977458	      0.62753987	      6.15201911	     15.52546361	      5.17817664	    -17.22383675	     10.02918482	     -8.35425173	     27.03335184	    -10.60452567	      0.51386417	    -61.91117037	      9.05191670	      4.22969700	     -7.59466544	      2.96515689	      4.30602891
      5.35000000	     -2.77015757	      1.56729147	   -123.86416639	      0.69451586	      0.93992997	      0.63306590	      5.48960263	     15.47108596	      6.19847665	    -17.10132660	     10.27117705	     -8.49991474	     27.65705259	    -10.30831621	      1.28415534	    -60.39493225	      9.34483714	      4.41930851	     -7.65873820	      2.90204512	      4.62984221
      5.36000000	     -2.73832361	      1.52737030	   -124.79451826	      0.69138756	      0.94008466	      0.63862011	      4.81216020	     15.39025820	      7.16177866	    -16.99512330	     10.50733395	     -8.71106758	     28.19055423	     -9.97317509	      2.10231468	    -58.75286369	      9.62361126	      4.84456440	     -7.75871945	      2.83937666	      4.90055767
      5.37000000	     -2.68938188	      1.51485572	   -125.71655105	      0.68827620	      0.94011473	      0.64412365	      4.21851762	     15.29946440	      8.11689878	    -16.96300403	     10.77788289	     -8.82144947	     28.70300392	     -9.63535446	      2.92008401	    -56.99305005	      9.83701084	      5.26418747	     -7.82378097	      2.77746653	      5.16872854
      5.38000000	     -2.62471987	      1.51874556	   -126.62077615	      0.68517200	      0.94003007	      0.64959845	      3.69025881	     15.19575970	      9.05035872	    -16.99122619	     11.11912965	     -8.88282032	     29.18012896	     -9.29536457	      3.73881465	    -55.11143943	      9.95840358	      5.63901741	     -7.86232135	      2.71065627	      5.43126885
      5.39000000	     -2.60389275	      1.48116582	   -127.45779723	      0.68208188	      0.93998968	      0.65513494	      3.10651139	     15.08630232	      9.91364248	    -17.01078298	     11.38341958	     -8.95986661	     29.52205726	     -8.94651379	      4.62093422	    -53.08898421	     10.15777649	      6.29219314	     -7.96195387	      2.65840256	      5.60807370
      5.40000000	     -2.56324772	      1.47261792	   -128.26694084	      0.67897725	      0.93980823	      0.66066269	      2.59278437	     14.97156251	     10.74810943	    -17.07423086	     11.71225244	     -9.01076253	     29.83544358	     -8.60871960	      5.51239899	    -50.94345828	     10.28750454	      6.85097842	     -8.01579718	      2.60443568	      5.78112656
      5.41000000	     -2.52813320	      1.46543904	   -129.03707493	      0.67585248	      0.93955467	      0.66619897	      2.10590428	     14.85630184	     11.54006848	    -17.17528109	     12.05174510	     -9.04639949	     30.07133777	     -8.28516836	      6.42962943	    -48.66678780	     10.40964801	      7.38167644	     -8.06684076	      2.55407436	      5.92058934
      5.42000000	     -2.47459937	      1.47052505	   -129.77897807	      0.67270216	      0.93918854	      0.67172782	      1.67967150	     14.73170020	     12.29391818	    -17.33342186	     12.45643344	     -9.07576975	     30.25055569	     -7.97106697	      7.36457031	    -46.26124936	     10.48787369	      7.78674933	     -8.08759063	      2.49218730	      6.04571938
      5.43000000	     -2.47700749	      1.47150405	   -130.46240112	      0.66951042	      0.93882648	      0.67730692	      1.20560398	     14.63929554	     12.99651918	    -17.46247929	     12.76759797	     -9.08400310	     30.30821727	     -7.70691627	      8.37232749	    -43.73033933	     10.67730048	      8.31756235	     -8.14323833	      2.47747535	      6.10755644
      5.44000000	     -2.44293424	      1.49754840	   -131.13766260	      0.66628657	      0.93831682	      0.68284731	      0.82533066	     14.53336971	     13.64744368	    -17.67022737	     13.18611044	     -9.09360383	     30.32716807	     -7.46533011	      9.38963775	    -41.08416038	     10.79876157	      8.64909017	     -8.14672741	      2.44370516	      6.17305475
